<svg width="516" height="516" style="width:100%;height:auto" viewBox="0 0 516 516" xmlns="http://www.w3.org/2000/svg" data-state="resting" data-palette="positive" data-background="#f1eCe3">
    <title>Typeform</title>
    <g transform="translate(108 108)">
      <path class="tf-ring" stroke-width="1" vector-effect="non-scaling-stroke" fill="none" transform="translate(9, 67)" stroke="#262627" d="M 80.82152444011949,161.64304888023898 C 101.49118147725623,159.2506423573757 113.9247024776237,146.33581036564757 131.7135740307765,131.6603770307765 C 149.5024455839293,116.98494369590539 168.61847706731757,110.15923292731757 169.76588220588354,88.26588220588351 C 170.9132873444495,66.37253148444947 154.56360626236523,39.30662996236521 137.45059972360625,22.193623423606237 C 120.33759318484728,5.080616884847262 106.27029719098537,1.8370867709853846 84.20084951208865,2.7008495120886593 C 62.13140183319194,3.5646122531919393 45.23604746985282,12.045123269852821 27.10336132912264,26.512437129122638 C 8.970675188392455,40.97975098839245 -6.714966694756294,51.6154243052437 -6.46258119156227,75.03741880843772 C -6.210195688368254,98.45941331163175 10.908467718756372,126.30128363073248 28.365288845092728,143.62240964509274 C 45.82210997142908,160.94353565945298 60.15186740298274,164.03545540310225 80.82152444011949,161.64304888023898z"/>
      <g class="tf-wordmark" transform="translate(86, 128)" fill="#262627">
        <polygon points="0.635793896 5.9761 0.635793896 1.0911 26.5537939 1.0911 26.5537939 5.9761 16.1787939 5.9761 16.1787939 33.9741 11.0107939 33.9741 11.0107939 5.9761"/>
        <polygon class="tf-letter" points="54.3164939 10.2983 48.6314939 10.2983 40.5664939 27.6483 32.9614939 10.2983 27.3324939 10.2983 37.6694939 33.8803 33.1704939 43.5563 38.8564939 43.5563" style="display: block;"/>
        <path class="tf-letter" d="M75.558 22.136c0-2.396-.563-4.322-1.69-5.73-1.128-1.457-2.584-2.162-4.37-2.162-1.785 0-3.24.705-4.368 2.162-1.128 1.408-1.69 3.334-1.69 5.73 0 2.396.562 4.32 1.69 5.778 1.127 1.41 2.583 2.114 4.368 2.114 1.786 0 3.242-.705 4.37-2.114 1.127-1.457 1.69-3.382 1.69-5.778M70.062 34.35c-2.772 0-5.167-1.316-6.34-3.006v12.212h-4.887V10.3h4.886v2.723c.9-1.55 3.57-3.1 6.44-3.1 6.91 0 10.57 4.508 10.57 12.213 0 7.516-3.71 12.214-10.66 12.214z" style="display: block;"/>
        <path class="tf-letter" d="M90.238 19.412h11.51c-.424-2.96-2.397-5.167-5.732-5.167-3.147 0-5.215 2.113-5.778 5.167zm16.676 4.086h-16.77c0 3.712 2.16 6.53 5.872 6.53 2.63 0 5.027-1.504 6.2-3.993l4.18 1.644c-2.394 4.65-5.166 6.67-10.38 6.67-7.798 0-11.04-6.58-11.04-12.22s3.242-12.22 11.04-12.22c7.563 0 10.898 6.15 10.898 11.46v2.11z" style="display: block;"/>
        <path class="tf-letter" d="M110.897 14.62v-4.322h3.054v-1.22c0-5.592 3.01-8.363 7.94-8.363 1.55 0 2.82.28 3.9.845l-.99 4.134c-.84-.423-1.78-.658-2.77-.658-2.11 0-3.19 1.222-3.19 3.712v1.55h5.22v4.32h-5.21v19.355h-4.88V14.62h-3.06z" style="display: block;"/>
        <path class="tf-letter" d="M132.45 22.136c0 2.16.564 4.04 1.69 5.59 1.176 1.55 2.773 2.302 4.793 2.302s3.618-.75 4.745-2.302c1.174-1.55 1.738-3.43 1.738-5.59 0-2.16-.564-3.993-1.738-5.543-1.127-1.55-2.725-2.35-4.745-2.35s-3.617.8-4.792 2.35c-1.12 1.55-1.69 3.382-1.69 5.543m-5.16 0c0-3.43 1.04-6.34 3.15-8.69 2.12-2.35 4.98-3.524 8.51-3.524 3.528 0 6.34 1.174 8.46 3.524 2.113 2.35 3.193 5.26 3.193 8.69 0 3.43-1.08 6.342-3.194 8.69-2.116 2.35-4.934 3.524-8.458 3.524-3.522 0-6.39-1.175-8.502-3.523-2.114-2.35-3.147-5.262-3.147-8.69z" style="display: block;"/>
        <path class="tf-letter" d="M160.11 33.974h-4.886V10.3h4.885v3.945c1.55-2.772 4.36-4.323 7-4.323 1.08 0 2.06.19 3 .564l-.85 4.463c-.75-.47-1.69-.71-2.77-.71-1.74 0-3.24.94-4.51 2.86-1.27 1.88-1.88 4.55-1.88 8.08v8.78z" style="display: block;"/>
        <path class="tf-letter" d="M175.14 10.298h4.885v4.04c1.927-2.96 4.275-4.416 7.14-4.416 3.195 0 5.826 1.926 6.53 4.885 1.644-3.147 4.322-4.885 7.376-4.885 4.28 0 6.77 2.818 6.77 7.093v16.958h-4.88V18.096c0-2.49-1.36-3.852-3.47-3.852-3.05 0-5.54 3.992-5.54 10.24v9.49h-4.884v-15.88c0-2.49-1.36-3.85-3.474-3.85-3.15 0-5.544 3.99-5.544 10.756v8.973h-4.885V10.298z" style="display: block;"/>
      </g>
    </g>
  </svg>